<svg xmlns="http://www.w3.org/2000/svg" viewBox="0 0 261.86 230.67"><defs><style>.cls-1{fill:#41b883;}.cls-2{fill:#34495e;}.cls-3,.cls-5{fill:none;}.cls-3{stroke:#000;stroke-miterlimit:10;}.cls-4{fill:#89ce03;}.cls-6{fill:#61900a;}</style></defs><g id="Layer_2" data-name="Layer 2"><g id="Layer_1-2" data-name="Layer 1"><path class="cls-1" d="M161.2,0,130.93,52.4,100.66,0H0L130.93,226.66,261.86,0Z"/><path class="cls-2" d="M161.2,0,130.93,52.4,100.66,0H52.4l78.53,136L209.46,0Z"/><line class="cls-3" x1="0.1" y1="226.64" x2="0.1" y2="226.64"/><path class="cls-4" d="M34.4,64.94c13.6-12,44.7,24.2,95.7,19.2,16.6-1.6,29.7-2.7,58.1-11.4,14.4-4.4,31.3-11.2,37.6-10.3,34.3,4.8-47.9,173.4-96.4,168-8.2-.9-16-9-31.7-25.3C53.9,159.74,40.6,119,35.8,100,30.9,80.84,28.3,70.34,34.4,64.94Z"/><path class="cls-5" d="M117.9,146.64c-10.2,0-17.5-1.5-28.4-3.7l-2.8-.6c-9.3-1.9-26.3-7.8-42.6-17,8.6,21.1,24.2,49.5,53.6,80,2.7,2.8,5.2,5.4,7.5,7.7,7.2-3.1,17.3-5,28.6-5,11.9,0,22.6,2.2,29.8,5.6,22.3-21.2,44.8-58.5,58.1-90.8-18.9,8.7-45.2,16.8-67.1,20.1C137.5,145.54,126.6,146.64,117.9,146.64Z"/><path class="cls-5" d="M119.4,115.94c-10.2,0-17.5-1.5-28.4-3.7l-2.8-.6c-11.9-2.4-36.3-11.3-55.8-25.5.9,4.1,2,8.7,3.4,14,.2.6.3,1.3.5,1.9,18.6,14.8,43.7,23.5,53.3,25.5l2.8.6c19.5,4,25.3,5.2,59.9-.1,29.4-4.5,62.3-16.9,75.9-25.8l1.1-.7a145.79,145.79,0,0,0,3.5-14.2c-18.7,10.4-50.8,21-76.7,25C139,114.84,128.2,115.94,119.4,115.94Z"/><path class="cls-5" d="M35.7,69.64c18.8,15.9,45.5,25.2,55.5,27.3l2.8.6c19.5,4,25.3,5.2,59.9-.1,29.4-4.5,62.3-16.9,75.9-25.8l3.2-2.1c-1.2-4-3.5-6.5-7.3-7-6.4-.9-23.2,5.9-37.6,10.3-28.3,8.6-41.4,9.7-58.1,11.4C79.1,89.24,47.9,53,34.3,65a9.09,9.09,0,0,0-1.8,2.1Z"/><path class="cls-6" d="M153.9,97.44c-34.6,5.3-40.4,4.1-59.9.1l-2.8-.6c-10-2-36.7-11.4-55.5-27.3L32.6,67c-2.5,4-2.1,10.1-.2,19.1,19.5,14.2,43.8,23.1,55.8,25.5l2.8.6c11,2.2,18.2,3.7,28.4,3.7,8.7,0,19.6-1.1,36.8-3.7,25.9-4,58-14.6,76.7-25,1.3-7.3,1.4-13.4.2-17.7l-3.2,2.1C216.2,80.54,183.3,92.84,153.9,97.44Z"/><path class="cls-6" d="M105.2,212.94c10.9,11.1,17.5,16.8,24.2,17.6,10.4,1.2,22.3-5.6,34.2-17-7.2-3.4-17.9-5.6-29.8-5.6C122.5,207.84,112.4,209.84,105.2,212.94Z"/><path class="cls-6" d="M152.3,128c-34.6,5.3-40.4,4.1-59.9.1l-2.8-.6c-9.6-2-34.7-10.7-53.3-25.5a190.73,190.73,0,0,0,7.8,23.2c16.3,9.3,33.2,15.1,42.6,17l2.8.6c11,2.2,18.2,3.7,28.4,3.7,8.7,0,19.6-1.1,36.8-3.7,21.9-3.4,48.2-11.4,67.1-20.1a222.72,222.72,0,0,0,7.7-21.2l-1.1.7C214.6,111.14,181.7,123.54,152.3,128Z"/></g></g></svg>