<?xml version="1.0" encoding="utf-8"?>
<!-- Generator: Adobe Illustrator 26.0.2, SVG Export Plug-In . SVG Version: 6.00 Build 0)  -->
<svg version="1.1" id="Layer_1" xmlns="http://www.w3.org/2000/svg" xmlns:xlink="http://www.w3.org/1999/xlink" x="0px" y="0px"
	 viewBox="0 0 512 512" style="enable-background:new 0 0 512 512;" xml:space="preserve">
<style type="text/css">
	.st0{fill:#41B883;}
	.st1{fill:#34495E;}
	.st2{fill:#FFFFFF;stroke:#000000;stroke-miterlimit:10;}
	.st3{fill:#89CE03;}
	.st4{fill:none;stroke:#61900A;stroke-width:15;stroke-linecap:square;stroke-miterlimit:10;}
	.st5{fill:none;}
	.st6{fill:#61900A;}
</style>
<g transform="matrix(1.3333 0 0 -1.3333 -76.311 313.34)">
	<g transform="translate(178.06 235.01)">
		<path class="st0" d="M93.6-118.7l-22.7-39.3l-22.7,39.3h-75.5l98.2-170l98.2,170H93.6z"/>
	</g>
	<g transform="translate(178.06 235.01)">
		<path class="st1" d="M93.6-118.7l-22.7-39.3l-22.7,39.3H12l58.9-102l58.9,102H93.6z"/>
	</g>
</g>
<line class="st2" x1="124.8" y1="384.9" x2="124.8" y2="384.9"/>
<path class="st3" d="M159.1,223.2c13.6-12,44.7,24.2,95.7,19.2c16.6-1.6,29.7-2.7,58.1-11.4c14.4-4.4,31.3-11.2,37.6-10.3
	c34.3,4.8-47.9,173.4-96.4,168c-8.2-0.9-16-9-31.7-25.3c-43.8-45.4-57.1-86.1-61.9-105.1C155.6,239.1,153,228.6,159.1,223.2z"/>
<path class="st4" d="M343.1,283.6"/>
<g>
	<path class="st5" d="M242.6,304.9c-10.2,0-17.5-1.5-28.4-3.7l-2.8-0.6c-9.3-1.9-26.3-7.8-42.6-17c8.6,21.1,24.2,49.5,53.6,80
		c2.7,2.8,5.2,5.4,7.5,7.7c7.2-3.1,17.3-5,28.6-5c11.9,0,22.6,2.2,29.8,5.6c22.3-21.2,44.8-58.5,58.1-90.8
		c-18.9,8.7-45.2,16.8-67.1,20.1C262.2,303.8,251.3,304.9,242.6,304.9z"/>
	<path class="st5" d="M244.1,274.2c-10.2,0-17.5-1.5-28.4-3.7l-2.8-0.6c-11.9-2.4-36.3-11.3-55.8-25.5c0.9,4.1,2,8.7,3.4,14
		c0.2,0.6,0.3,1.3,0.5,1.9c18.6,14.8,43.7,23.5,53.3,25.5l2.8,0.6c19.5,4,25.3,5.2,59.9-0.1c29.4-4.5,62.3-16.9,75.9-25.8l1.1-0.7
		c1.5-5.1,2.7-9.9,3.5-14.2c-18.7,10.4-50.8,21-76.7,25C263.7,273.1,252.9,274.2,244.1,274.2z"/>
	<path class="st5" d="M160.4,227.9c18.8,15.9,45.5,25.2,55.5,27.3l2.8,0.6c19.5,4,25.3,5.2,59.9-0.1c29.4-4.5,62.3-16.9,75.9-25.8
		l3.2-2.1c-1.2-4-3.5-6.5-7.3-7c-6.4-0.9-23.2,5.9-37.6,10.3c-28.3,8.6-41.4,9.7-58.1,11.4c-50.9,5-82.1-31.2-95.7-19.2
		c-0.7,0.6-1.3,1.3-1.8,2.1L160.4,227.9z"/>
	<path class="st6" d="M278.6,255.7c-34.6,5.3-40.4,4.1-59.9,0.1l-2.8-0.6c-10-2-36.7-11.4-55.5-27.3l-3.1-2.6
		c-2.5,4-2.1,10.1-0.2,19.1c19.5,14.2,43.8,23.1,55.8,25.5l2.8,0.6c11,2.2,18.2,3.7,28.4,3.7c8.7,0,19.6-1.1,36.8-3.7
		c25.9-4,58-14.6,76.7-25c1.3-7.3,1.4-13.4,0.2-17.7l-3.2,2.1C340.9,238.8,308,251.1,278.6,255.7z"/>
	<path class="st6" d="M229.9,371.2c10.9,11.1,17.5,16.8,24.2,17.6c10.4,1.2,22.3-5.6,34.2-17c-7.2-3.4-17.9-5.6-29.8-5.6
		C247.2,366.1,237.1,368.1,229.9,371.2z"/>
	<path class="st6" d="M277,286.3c-34.6,5.3-40.4,4.1-59.9,0.1l-2.8-0.6c-9.6-2-34.7-10.7-53.3-25.5c1.6,6,4,13.9,7.8,23.2
		c16.3,9.3,33.2,15.1,42.6,17l2.8,0.6c11,2.2,18.2,3.7,28.4,3.7c8.7,0,19.6-1.1,36.8-3.7c21.9-3.4,48.2-11.4,67.1-20.1
		c3.1-7.4,5.7-14.6,7.7-21.2l-1.1,0.7C339.3,269.4,306.4,281.8,277,286.3z"/>
</g>
</svg>
